%FSTAX23Y23*%
%MOIN*%
%SFA1B1*%

%IPPOS*%
%AMD68*
4,1,8,0.032500,-0.010900,0.032500,0.010900,0.030600,0.012800,-0.030600,0.012800,-0.032500,0.010900,-0.032500,-0.010900,-0.030600,-0.012800,0.030600,-0.012800,0.032500,-0.010900,0.0*
1,1,0.003843,0.030600,-0.010900*
1,1,0.003843,0.030600,0.010900*
1,1,0.003843,-0.030600,0.010900*
1,1,0.003843,-0.030600,-0.010900*
%
%ADD14C,0.010000*%
%ADD33R,0.031496X0.037992*%
%ADD52C,0.031496*%
%ADD58C,0.030000*%
%ADD59C,0.020000*%
%ADD63C,0.074803*%
%ADD64C,0.050000*%
%ADD65C,0.025000*%
%ADD66C,0.030000*%
%ADD67C,0.045000*%
G04~CAMADD=68~8~0.0~0.0~255.9~649.6~19.2~0.0~15~0.0~0.0~0.0~0.0~0~0.0~0.0~0.0~0.0~0~0.0~0.0~0.0~270.0~650.0~256.0*
%ADD68D68*%
%ADD69O,0.047244X0.141732*%
%ADD70R,0.047244X0.141732*%
%ADD71R,0.037992X0.031496*%
%ADD72C,0.040000*%
%LNmain-1*%
%LPD*%
G54D14*
X0155Y02958D02*
Y03091D01*
X01552Y03093*
X01349Y02909D02*
Y03088D01*
Y02909D02*
X01373Y02885D01*
X01454*
X01453Y01185D02*
X01488Y0122D01*
X01492*
X0155Y02958D02*
X016Y02908D01*
Y028D02*
Y02908D01*
X0155Y02717D02*
X01551Y02718D01*
Y0285*
X01437Y02964D02*
X01551Y0285D01*
X01367Y03115D02*
X0144D01*
X01229Y03129D02*
X01352D01*
X01367Y03115*
X012Y031D02*
X01229Y03129D01*
X0197Y02541D02*
Y02568D01*
X01942Y02597D02*
X0197Y02568D01*
Y02391D02*
Y02441D01*
X01819Y02372D02*
X01824Y02376D01*
X01767Y02372D02*
X01819D01*
X00999Y02799D02*
X01Y028D01*
X00934Y02799D02*
X00999D01*
X01453Y01012D02*
Y01185D01*
X01393Y01211D02*
X01396Y01214D01*
Y01315D02*
X014Y01318D01*
X01396Y01214D02*
Y01315D01*
X0168Y01222D02*
X01687D01*
X01659Y01201D02*
X0168Y01222D01*
X01658Y01201D02*
X01659D01*
X01687Y01222D02*
X01698Y01233D01*
X01559Y01213D02*
X01563Y01209D01*
Y01183D02*
Y01209D01*
Y01183D02*
X016Y01147D01*
X015Y01269D02*
Y01318D01*
X01522Y01179D02*
Y01247D01*
Y01179D02*
X0155Y01151D01*
X015Y01269D02*
X01522Y01247D01*
X01649Y0102D02*
X01668D01*
X017Y01052D02*
Y011D01*
X01668Y0102D02*
X017Y01052D01*
X01645Y01016D02*
X01649Y0102D01*
X01549Y01017D02*
X0155Y01018D01*
Y01151*
X014Y01052D02*
X01432Y0102D01*
X01444D02*
X01453Y01012D01*
X01432Y0102D02*
X01444D01*
X014Y01052D02*
Y011D01*
X01733Y01198D02*
Y01225D01*
X01772Y01264D02*
X01782D01*
X01733Y01225D02*
X01772Y01264D01*
X018Y01281D02*
Y01318D01*
X01782Y01264D02*
X018Y01281D01*
X01692Y03011D02*
X017Y03018D01*
X01691Y02947D02*
X01692Y02948D01*
X0165Y02858D02*
X01691Y02899D01*
X01692Y02948D02*
Y03011D01*
X01691Y02899D02*
Y02947D01*
X0165Y02378D02*
Y02858D01*
X01648Y02914D02*
Y02918D01*
X016Y02967D02*
X01648Y02918D01*
X0125Y01197D02*
Y01463D01*
X01287Y015*
X01538D02*
X01538Y015D01*
X013Y01318D02*
Y0147D01*
X01287Y015D02*
X01538D01*
X0197Y01436D02*
Y01496D01*
X019Y01366D02*
X0197Y01436D01*
X019Y01318D02*
Y01366D01*
X01732Y02359D02*
Y02608D01*
X017Y0264D02*
X01732Y02608D01*
X01535Y02263D02*
X0165Y02378D01*
X01799Y02292D02*
X01959D01*
X01732Y02359D02*
X01799Y02292D01*
X01959D02*
X02108Y02441D01*
X02193*
X01892Y02326D02*
Y02372D01*
X01978Y02448D02*
X02017D01*
X02035Y02466D02*
Y02617D01*
X01887Y02376D02*
X01892Y02372D01*
X02017Y02448D02*
X02035Y02466D01*
X0197Y02441D02*
X01978Y02448D01*
X01887Y02438D02*
Y02441D01*
X01929Y02483*
X01943*
X01951Y02491*
X01835Y02453D02*
Y025D01*
X01824Y02442D02*
X01835Y02453D01*
X01824Y02439D02*
Y02442D01*
Y02439D02*
X01887D01*
X01887Y02438*
X02356Y02521D02*
Y02622D01*
X02448Y02714*
X02284Y02401D02*
Y02404D01*
X02247Y02441D02*
X02284Y02404D01*
X02193Y02441D02*
X02247D01*
X02284Y02466D02*
Y02511D01*
Y02463D02*
Y02466D01*
Y02511D02*
X02293Y02521D01*
X02259Y02491D02*
X02284Y02466D01*
X02193Y02491D02*
X02259D01*
X02097Y02617D02*
X02156D01*
X02158Y02615*
X02184Y02541D02*
X02193D01*
X02177Y02548D02*
Y02596D01*
X02171Y02601D02*
Y02604D01*
X02158Y02615D02*
X02161D01*
X02171Y02601D02*
X02177Y02596D01*
Y02548D02*
X02184Y02541D01*
X02161Y02615D02*
X02171Y02604D01*
X02223Y02615D02*
X02253Y02644D01*
Y02663D02*
X02261Y02671D01*
X02253Y02644D02*
Y02663D01*
X0222Y02615D02*
X02223D01*
X018Y01063D02*
Y011D01*
X01782Y01046D02*
X018Y01063D01*
X01707Y00982D02*
X01771Y01046D01*
X01782*
X01386Y00982D02*
X01707D01*
X01351Y01016D02*
X01386Y00982D01*
X016Y011D02*
Y01147D01*
X01535Y02263D02*
Y02263D01*
X01375Y0178D02*
Y01866D01*
X01371Y0187D02*
X01375Y01866D01*
X012Y01147D02*
X0125Y01197D01*
X01375Y0178D02*
X016Y01555D01*
Y01318D02*
Y01555D01*
X01698Y01233D02*
Y01317D01*
X012Y011D02*
Y01147D01*
X01002Y01452D02*
X01005Y01455D01*
X01002Y01321D02*
Y01452D01*
X01Y01318D02*
X01002Y01321D01*
X019Y01052D02*
X01938Y01014D01*
X01955*
X0196Y0101*
X019Y01052D02*
Y011D01*
X01895Y01D02*
Y01095D01*
X019Y011*
X01035Y02905D02*
Y02953D01*
X01349Y02717D02*
X01355D01*
X014Y02761*
Y028*
Y02981D02*
Y03018D01*
X01417Y02964D02*
X01437D01*
X014Y02981D02*
X01417Y02964D01*
X015Y02962D02*
Y03018D01*
Y02962D02*
X01554Y02908D01*
X01454Y02885D02*
X015Y0284D01*
Y028D02*
Y0284D01*
X01035Y02953D02*
X011Y03018D01*
X013Y01147D02*
X01331Y01178D01*
X013Y011D02*
Y01147D01*
X01331Y01178D02*
Y01201D01*
X01335Y01205*
X013Y03018D02*
Y03064D01*
X01251Y03092D02*
X01272D01*
X013Y03064*
X01247Y03096D02*
X01251Y03092D01*
X01769Y03096D02*
X018Y03066D01*
X01749Y031D02*
X01753Y03096D01*
X018Y03018D02*
Y03066D01*
X01753Y03096D02*
X01769D01*
X016Y02967D02*
Y03018D01*
X01802Y02702D02*
Y02797D01*
X018Y028D02*
X01802Y02797D01*
Y02702D02*
X01805Y027D01*
X012Y03018D02*
Y031D01*
X01698Y01317D02*
X017Y01318D01*
Y0264D02*
Y028D01*
G54D33*
X01824Y02439D03*
Y02376D03*
X02284Y02463D03*
Y02401D03*
X01835Y02562D03*
Y025D03*
X01887Y02438D03*
Y02376D03*
G54D52*
X0226Y01271D03*
Y0131D03*
Y0135D03*
Y01114D03*
Y01074D03*
Y01035D03*
X0218Y01114D03*
X02221D03*
X0218Y01074D03*
X02221D03*
X0214Y01114D03*
Y01074D03*
Y01035D03*
X02221D03*
X0218D03*
Y01271D03*
X02221D03*
X0214D03*
Y0131D03*
Y0135D03*
X01149Y02733D03*
X01552Y03093D03*
X01349Y03088D03*
X01314Y02905D03*
X01851Y01397D03*
X00944Y01344D03*
X0155Y02717D03*
X01905Y0291D03*
X0144Y03115D03*
X01767Y02372D03*
X00934Y02799D03*
X01393Y01211D03*
X01658Y01201D03*
X01559Y01213D03*
X01645Y01016D03*
X01549Y01017D03*
X01453Y01016D03*
X01733Y01198D03*
X01646Y01402D03*
X01149Y01026D03*
X01648Y02914D03*
X013Y0147D03*
X0197Y0149D03*
X02221Y0131D03*
X0218D03*
X02221Y0135D03*
X0218D03*
X01835Y01824D03*
X01687Y02597D03*
X01892Y02326D03*
X01875Y0121D03*
X01351Y01016D03*
X0128Y02618D03*
X01236Y0266D03*
X01371Y0187D03*
X01538Y015D03*
X01005Y01455D03*
X0196Y0101D03*
X01895Y01D03*
X01035Y02905D03*
X01349Y02717D03*
X01554Y02908D03*
X01335Y01205D03*
X0145Y01397D03*
X01247Y03096D03*
X01749Y031D03*
X01655Y03104D03*
X01735Y02905D03*
X01805Y027D03*
X01148Y03094D03*
X01148Y01395D03*
X0121Y01552D03*
G54D58*
X01835Y02562D02*
Y02618D01*
X01891Y02674*
X01902*
X019Y028D02*
X01902Y02797D01*
Y02674D02*
Y02797D01*
G54D59*
X02003Y02285D02*
X0211Y02392D01*
X02003Y01883D02*
Y02285D01*
X02Y0188D02*
X02003Y01883D01*
X0211Y02392D02*
X02192D01*
X02193Y02391*
G54D63*
X02677Y0111D03*
Y01803D03*
G54D64*
X01659Y01942D03*
X01942Y02597D03*
X02417Y03019D03*
X0228Y0302D03*
X02417Y0294D03*
X02279D03*
X0176Y0148D03*
X0212Y0155D03*
X0268Y014D03*
X0262D03*
X0268Y0146D03*
X0262D03*
X0155Y019D03*
X02Y0188D03*
X02361Y02371D03*
X0244Y0226D03*
X02065Y02207D03*
X00921Y02859D03*
X00933Y03043D03*
X02164Y02788D03*
X02448Y02714D03*
X02261Y02671D03*
X01958Y02244D03*
X02503Y02441D03*
X02362Y02311D03*
X02431Y02441D03*
X01535Y02263D03*
X0106Y02675D03*
X01966Y01218D03*
X01902Y02674D03*
X01524Y025D03*
X0248Y01181D03*
X02621Y01655D03*
X01109Y0221D03*
X01353Y02199D03*
X00961Y01869D03*
X01392Y01554D03*
X02633Y02774D03*
X0257D03*
Y02833D03*
X02633D03*
X02291Y01972D03*
X02606Y02071D03*
Y0213D03*
X02625Y02248D03*
X02606Y02189D03*
X02358Y01972D03*
G54D65*
X01492Y0122D03*
G54D66*
X01606Y01214D03*
G54D67*
X01011Y01208D03*
G54D68*
X02193Y02541D03*
Y02491D03*
Y02441D03*
Y02391D03*
X0197Y02541D03*
Y02491D03*
Y02441D03*
Y02391D03*
G54D69*
X01Y03018D03*
X011D03*
X012D03*
X013D03*
X014D03*
X015D03*
X016D03*
X017D03*
X018D03*
X019D03*
X01Y028D03*
X011D03*
X012D03*
X013D03*
X014D03*
X015D03*
X016D03*
X017D03*
X018D03*
Y011D03*
X017D03*
X016D03*
X015D03*
X014D03*
X013D03*
X012D03*
X011D03*
X01D03*
X019Y01318D03*
X018D03*
X017D03*
X016D03*
X015D03*
X014D03*
X013D03*
X012D03*
X011D03*
X01D03*
G54D70*
X019Y028D03*
Y011D03*
G54D71*
X02356Y02521D03*
X02293D03*
X02035Y02617D03*
X02097D03*
X0222Y02615D03*
X02158D03*
G54D72*
X01968Y01216D02*
X02036D01*
X01966Y01218D02*
X01968Y01216D01*
X02036D02*
X02071Y01181D01*
X0248*
M02*