%FSTAX23Y23*%
%MOIN*%
%SFA1B1*%

%IPPOS*%
%AMD73*
4,1,8,0.036500,-0.010900,0.036500,0.010900,0.030600,0.016800,-0.030600,0.016800,-0.036500,0.010900,-0.036500,-0.010900,-0.030600,-0.016800,0.030600,-0.016800,0.036500,-0.010900,0.0*
1,1,0.011843,0.030600,-0.010900*
1,1,0.011843,0.030600,0.010900*
1,1,0.011843,-0.030600,0.010900*
1,1,0.011843,-0.030600,-0.010900*
%
%ADD49R,0.039496X0.045992*%
%ADD51C,0.082803*%
%ADD52C,0.031496*%
%ADD53C,0.039496*%
%ADD54C,0.058000*%
%ADD55C,0.033000*%
%ADD56C,0.038000*%
%ADD57C,0.053000*%
G04~CAMADD=73~8~0.0~0.0~335.9~729.6~59.2~0.0~15~0.0~0.0~0.0~0.0~0~0.0~0.0~0.0~0.0~0~0.0~0.0~0.0~270.0~730.0~336.0*
%ADD73D73*%
%ADD74O,0.055244X0.149732*%
%ADD75R,0.055244X0.149732*%
%ADD76R,0.045992X0.039496*%
%LNmain-1*%
%LPD*%
G54D49*
X01824Y02439D03*
Y02376D03*
X02284Y02463D03*
Y02401D03*
X01835Y02562D03*
Y025D03*
X01887Y02438D03*
Y02376D03*
G54D51*
X02677Y0111D03*
Y01803D03*
G54D52*
X0226Y01271D03*
Y0131D03*
Y0135D03*
Y01114D03*
Y01074D03*
Y01035D03*
X0218Y01114D03*
X02221D03*
X0218Y01074D03*
X02221D03*
X0214Y01114D03*
Y01074D03*
Y01035D03*
X02221D03*
X0218D03*
Y01271D03*
X02221D03*
X0214D03*
Y0131D03*
Y0135D03*
X02221Y0131D03*
X0218D03*
X02221Y0135D03*
X0218D03*
G54D53*
X01149Y02733D03*
X01552Y03093D03*
X01349Y03088D03*
X01314Y02905D03*
X01851Y01397D03*
X00944Y01344D03*
X0155Y02717D03*
X01905Y0291D03*
X0144Y03115D03*
X01767Y02372D03*
X00934Y02799D03*
X01393Y01211D03*
X01658Y01201D03*
X01559Y01213D03*
X01645Y01016D03*
X01549Y01017D03*
X01453Y01016D03*
X01733Y01198D03*
X01646Y01402D03*
X01149Y01026D03*
X01648Y02914D03*
X013Y0147D03*
X0197Y0149D03*
X01835Y01824D03*
X01687Y02597D03*
X01892Y02326D03*
X01875Y0121D03*
X01351Y01016D03*
X0128Y02618D03*
X01236Y0266D03*
X01371Y0187D03*
X01538Y015D03*
X01005Y01455D03*
X0196Y0101D03*
X01895Y01D03*
X01035Y02905D03*
X01349Y02717D03*
X01554Y02908D03*
X01335Y01205D03*
X0145Y01397D03*
X01247Y03096D03*
X01749Y031D03*
X01655Y03104D03*
X01735Y02905D03*
X01805Y027D03*
X01148Y03094D03*
X01148Y01395D03*
X0121Y01552D03*
G54D54*
X01659Y01942D03*
X01942Y02597D03*
X02417Y03019D03*
X0228Y0302D03*
X02417Y0294D03*
X02279D03*
X0176Y0148D03*
X0212Y0155D03*
X0268Y014D03*
X0262D03*
X0268Y0146D03*
X0262D03*
X0155Y019D03*
X02Y0188D03*
X02361Y02371D03*
X0244Y0226D03*
X02065Y02207D03*
X00921Y02859D03*
X00933Y03043D03*
X02164Y02788D03*
X02448Y02714D03*
X02261Y02671D03*
X01958Y02244D03*
X02503Y02441D03*
X02362Y02311D03*
X02431Y02441D03*
X01535Y02263D03*
X0106Y02675D03*
X01966Y01218D03*
X01902Y02674D03*
X01524Y025D03*
X0248Y01181D03*
X02621Y01655D03*
X01109Y0221D03*
X01353Y02199D03*
X00961Y01869D03*
X01392Y01554D03*
X02633Y02774D03*
X0257D03*
Y02833D03*
X02633D03*
X02291Y01972D03*
X02606Y02071D03*
Y0213D03*
X02625Y02248D03*
X02606Y02189D03*
X02358Y01972D03*
G54D55*
X01492Y0122D03*
G54D56*
X01606Y01214D03*
G54D57*
X01011Y01208D03*
G54D73*
X02193Y02541D03*
Y02491D03*
Y02441D03*
Y02391D03*
X0197Y02541D03*
Y02491D03*
Y02441D03*
Y02391D03*
G54D74*
X01Y03018D03*
X011D03*
X012D03*
X013D03*
X014D03*
X015D03*
X016D03*
X017D03*
X018D03*
X019D03*
X01Y028D03*
X011D03*
X012D03*
X013D03*
X014D03*
X015D03*
X016D03*
X017D03*
X018D03*
Y011D03*
X017D03*
X016D03*
X015D03*
X014D03*
X013D03*
X012D03*
X011D03*
X01D03*
X019Y01318D03*
X018D03*
X017D03*
X016D03*
X015D03*
X014D03*
X013D03*
X012D03*
X011D03*
X01D03*
G54D75*
X019Y028D03*
Y011D03*
G54D76*
X02356Y02521D03*
X02293D03*
X02035Y02617D03*
X02097D03*
X0222Y02615D03*
X02158D03*
M02*