%FSTAX23Y23*%
%MOIN*%
%SFA1B1*%

%IPPOS*%
%ADD52C,0.031496*%
%ADD64C,0.050000*%
%LNmain-1*%
%LPD*%
G36*
X02027Y01909D02*
X02022Y01906D01*
X02017Y0191*
X02009Y01914*
X02Y01915*
X0199Y01914*
X01982Y0191*
X01975Y01904*
X01969Y01897*
X01965Y01889*
X01964Y0188*
X01965Y0187*
X01969Y01862*
X01975Y01855*
X01982Y01849*
X0199Y01845*
X02Y01844*
X02009Y01845*
X02017Y01849*
X02022Y01853*
X02027Y0185*
Y01397*
X02341*
Y01535*
X02156*
X02153Y01539*
X02154Y0154*
X02154Y01545*
X0212*
Y0155*
X02115*
Y01584*
X0211Y01584*
X02102Y0158*
X02095Y01574*
X02089Y01567*
X02087Y01563*
X02082Y01564*
Y02177*
X02089Y02182*
X02095Y0219*
X02099Y02198*
X021Y02207*
X02099Y02217*
X02095Y02225*
X02089Y02232*
X02082Y02238*
Y0294*
X02244*
X02245Y0293*
X02248Y02922*
X02254Y02915*
X02261Y02909*
X0227Y02905*
X02279Y02904*
X02288Y02905*
X02297Y02909*
X02304Y02915*
X0231Y02922*
X02313Y0293*
X02314Y0294*
X02382*
X02383Y0293*
X02386Y02922*
X02392Y02915*
X02399Y02909*
X02408Y02905*
X02417Y02904*
X02426Y02905*
X02434Y02909*
X02442Y02915*
X02447Y02922*
X02451Y0293*
X02452Y0294*
X02854*
Y02506*
Y01535*
X02853*
X02854Y00968*
X02851Y00964*
X00885*
Y02838*
X0089Y02841*
X0089Y02841*
X00896Y02834*
X00903Y02828*
X00912Y02825*
X00916Y02824*
X00917Y02819*
X00916Y02818*
X00911Y02812*
X00909Y02806*
X00908Y02799*
X00909Y02793*
X00911Y02786*
X00916Y02781*
X00921Y02777*
X00927Y02774*
X00934Y02773*
X00941Y02774*
X00947Y02777*
X00952Y02781*
X00956Y02786*
X00959Y02793*
X0096Y02799*
X00959Y02806*
X00956Y02812*
X00952Y02818*
X00947Y02822*
X00941Y02824*
X0094Y02827*
X0094Y0283*
X00946Y02834*
X00951Y02841*
X00955Y0285*
X00956Y02859*
X00955Y02868*
X00951Y02876*
X00946Y02884*
X00938Y02889*
X0093Y02893*
X00921Y02894*
X00912Y02893*
X00903Y02889*
X00896Y02884*
X0089Y02877*
X0089Y02877*
X00885Y02879*
Y03169*
X02027*
Y01909*
G37*
%LNmain-2*%
%LPC*%
G36*
X0166Y0313D02*
Y03109D01*
X01681*
X01681Y03111*
X01678Y03117*
X01674Y03123*
X01668Y03127*
X01662Y0313*
X0166Y0313*
G37*
G36*
X0165D02*
X01649Y0313D01*
X01642Y03127*
X01637Y03123*
X01633Y03117*
X0163Y03111*
X0163Y03109*
X0165*
Y0313*
G37*
G36*
X01153Y03119D02*
Y03099D01*
X01173*
X01173Y031*
X0117Y03107*
X01166Y03112*
X01161Y03116*
X01155Y03119*
X01153Y03119*
G37*
G36*
X01143D02*
X01141Y03119D01*
X01135Y03116*
X0113Y03112*
X01125Y03107*
X01123Y031*
X01123Y03099*
X01143*
Y03119*
G37*
G36*
X0144Y0314D02*
X01433Y0314D01*
X01427Y03137*
X01421Y03133*
X01417Y03127*
X01414Y03121*
X01414Y03115*
X01414Y03108*
X01417Y03102*
X01421Y03096*
X01427Y03092*
X01433Y03089*
X0144Y03089*
X01446Y03089*
X01452Y03092*
X01458Y03096*
X01462Y03102*
X01465Y03108*
X01465Y03115*
X01465Y03121*
X01462Y03127*
X01458Y03133*
X01452Y03137*
X01446Y0314*
X0144Y0314*
G37*
G36*
X01681Y03099D02*
X0166D01*
Y03079*
X01662Y03079*
X01668Y03082*
X01674Y03086*
X01678Y03091*
X01681Y03098*
X01681Y03099*
G37*
G36*
X0165D02*
X0163D01*
X0163Y03098*
X01633Y03091*
X01637Y03086*
X01642Y03082*
X01649Y03079*
X0165Y03079*
Y03099*
G37*
G36*
X01749Y03126D02*
X01742Y03125D01*
X01736Y03123*
X0173Y03119*
X01726Y03113*
X01723Y03107*
X01723Y031*
X01723Y03093*
X01726Y03087*
X0173Y03082*
X01736Y03078*
X01742Y03075*
X01749Y03074*
X01755Y03075*
X01762Y03078*
X01767Y03082*
X01771Y03087*
X01774Y03093*
X01774Y031*
X01774Y03107*
X01771Y03113*
X01767Y03119*
X01762Y03123*
X01755Y03125*
X01749Y03126*
G37*
G36*
X01247Y03122D02*
X0124Y03121D01*
X01234Y03119*
X01229Y03115*
X01225Y03109*
X01222Y03103*
X01221Y03096*
X01222Y0309*
X01225Y03083*
X01229Y03078*
X01234Y03074*
X0124Y03071*
X01247Y0307*
X01254Y03071*
X0126Y03074*
X01265Y03078*
X0127Y03083*
X01272Y0309*
X01273Y03096*
X01272Y03103*
X0127Y03109*
X01265Y03115*
X0126Y03119*
X01254Y03121*
X01247Y03122*
G37*
G36*
X01173Y03089D02*
X01153D01*
Y03068*
X01155Y03068*
X01161Y03071*
X01166Y03075*
X0117Y03081*
X01173Y03087*
X01173Y03089*
G37*
G36*
X01143D02*
X01123D01*
X01123Y03087*
X01125Y03081*
X0113Y03075*
X01135Y03071*
X01141Y03068*
X01143Y03068*
Y03089*
G37*
G36*
X01552Y03119D02*
X01545Y03118D01*
X01539Y03115*
X01533Y03111*
X01529Y03106*
X01527Y03099*
X01526Y03093*
X01527Y03086*
X01529Y0308*
X01533Y03074*
X01539Y0307*
X01545Y03067*
X01552Y03067*
X01558Y03067*
X01565Y0307*
X0157Y03074*
X01574Y0308*
X01577Y03086*
X01578Y03093*
X01577Y03099*
X01574Y03106*
X0157Y03111*
X01565Y03115*
X01558Y03118*
X01552Y03119*
G37*
G36*
X01349Y03114D02*
X01343Y03114D01*
X01336Y03111*
X01331Y03107*
X01327Y03101*
X01324Y03095*
X01323Y03088*
X01324Y03082*
X01327Y03076*
X01331Y0307*
X01336Y03066*
X01343Y03063*
X01349Y03063*
X01356Y03063*
X01362Y03066*
X01368Y0307*
X01372Y03076*
X01375Y03082*
X01375Y03088*
X01375Y03095*
X01372Y03101*
X01368Y03107*
X01362Y03111*
X01356Y03114*
X01349Y03114*
G37*
G36*
X00933Y03078D02*
X00924Y03077D01*
X00915Y03073*
X00908Y03068*
X00902Y0306*
X00899Y03052*
X00897Y03043*
X00899Y03034*
X00902Y03025*
X00908Y03018*
X00915Y03012*
X00924Y03009*
X00933Y03008*
X00942Y03009*
X0095Y03012*
X00958Y03018*
X00963Y03025*
X00967Y03034*
X00968Y03043*
X00967Y03052*
X00963Y0306*
X00958Y03068*
X0095Y03073*
X00942Y03077*
X00933Y03078*
G37*
G36*
X0191Y02935D02*
Y02915D01*
X0193*
X0193Y02916*
X01927Y02922*
X01923Y02928*
X01917Y02932*
X01911Y02935*
X0191Y02935*
G37*
G36*
X019D02*
X01898Y02935D01*
X01892Y02932*
X01886Y02928*
X01882Y02922*
X01879Y02916*
X01879Y02915*
X019*
Y02935*
G37*
G36*
X01648Y0294D02*
X01641Y02939D01*
X01635Y02936*
X0163Y02932*
X01625Y02927*
X01623Y0292*
X01622Y02914*
X01623Y02907*
X01625Y02901*
X0163Y02895*
X01635Y02891*
X01641Y02889*
X01648Y02888*
X01655Y02889*
X01661Y02891*
X01666Y02895*
X0167Y02901*
X01673Y02907*
X01674Y02914*
X01673Y0292*
X0167Y02927*
X01666Y02932*
X01661Y02936*
X01655Y02939*
X01648Y0294*
G37*
G36*
X0193Y02905D02*
X0191D01*
Y02884*
X01911Y02884*
X01917Y02887*
X01923Y02891*
X01927Y02897*
X0193Y02903*
X0193Y02905*
G37*
G36*
X019D02*
X01879D01*
X01879Y02903*
X01882Y02897*
X01886Y02891*
X01892Y02887*
X01898Y02884*
X019Y02884*
Y02905*
G37*
G36*
X01554Y02934D02*
X01547Y02933D01*
X01541Y0293*
X01535Y02926*
X01531Y02921*
X01529Y02914*
X01528Y02908*
X01529Y02901*
X01531Y02895*
X01535Y02889*
X01541Y02885*
X01547Y02883*
X01554Y02882*
X0156Y02883*
X01567Y02885*
X01572Y02889*
X01576Y02895*
X01579Y02901*
X0158Y02908*
X01579Y02914*
X01576Y02921*
X01572Y02926*
X01567Y0293*
X0156Y02933*
X01554Y02934*
G37*
G36*
X01314Y02931D02*
X01307Y0293D01*
X01301Y02928*
X01295Y02924*
X01291Y02918*
X01288Y02912*
X01288Y02905*
X01288Y02899*
X01291Y02892*
X01295Y02887*
X01301Y02883*
X01307Y0288*
X01314Y02879*
X0132Y0288*
X01327Y02883*
X01332Y02887*
X01336Y02892*
X01339Y02899*
X0134Y02905*
X01339Y02912*
X01336Y02918*
X01332Y02924*
X01327Y02928*
X0132Y0293*
X01314Y02931*
G37*
G36*
X01735Y0293D02*
X01728Y0293D01*
X01722Y02927*
X01716Y02923*
X01712Y02917*
X01709Y02911*
X01709Y02905*
X01709Y02898*
X01712Y02892*
X01716Y02886*
X01722Y02882*
X01728Y02879*
X01735Y02879*
X01741Y02879*
X01747Y02882*
X01753Y02886*
X01757Y02892*
X0176Y02898*
X0176Y02905*
X0176Y02911*
X01757Y02917*
X01753Y02923*
X01747Y02927*
X01741Y0293*
X01735Y0293*
G37*
G36*
X01035D02*
X01028Y0293D01*
X01022Y02927*
X01016Y02923*
X01012Y02917*
X01009Y02911*
X01009Y02905*
X01009Y02898*
X01012Y02892*
X01016Y02886*
X01022Y02882*
X01028Y02879*
X01035Y02879*
X01041Y02879*
X01047Y02882*
X01053Y02886*
X01057Y02892*
X0106Y02898*
X0106Y02905*
X0106Y02911*
X01057Y02917*
X01053Y02923*
X01047Y02927*
X01041Y0293*
X01035Y0293*
G37*
G36*
X02164Y02824D02*
X02155Y02823D01*
X02147Y02819*
X0214Y02813*
X02134Y02806*
X0213Y02798*
X02129Y02788*
X0213Y02779*
X02134Y02771*
X0214Y02764*
X02147Y02758*
X02155Y02754*
X02164Y02753*
X02174Y02754*
X02182Y02758*
X02189Y02764*
X02195Y02771*
X02199Y02779*
X022Y02788*
X02199Y02798*
X02195Y02806*
X02189Y02813*
X02182Y02819*
X02174Y02823*
X02164Y02824*
G37*
G36*
X01154Y02758D02*
Y02738D01*
X01175*
X01174Y02739*
X01172Y02746*
X01168Y02751*
X01162Y02755*
X01156Y02758*
X01154Y02758*
G37*
G36*
X01144D02*
X01142Y02758D01*
X01136Y02755*
X01131Y02751*
X01127Y02746*
X01124Y02739*
X01124Y02738*
X01144*
Y02758*
G37*
G36*
X01175Y02728D02*
X01154D01*
Y02707*
X01156Y02707*
X01162Y0271*
X01168Y02714*
X01172Y0272*
X01174Y02726*
X01175Y02728*
G37*
G36*
X01144D02*
X01124D01*
X01124Y02726*
X01127Y0272*
X01131Y02714*
X01136Y0271*
X01142Y02707*
X01144Y02707*
Y02728*
G37*
G36*
X0181Y02725D02*
Y02705D01*
X0183*
X0183Y02706*
X01827Y02712*
X01823Y02718*
X01817Y02722*
X01811Y02725*
X0181Y02725*
G37*
G36*
X018D02*
X01798Y02725D01*
X01792Y02722*
X01786Y02718*
X01782Y02712*
X01779Y02706*
X01779Y02705*
X018*
Y02725*
G37*
G36*
X01349Y02743D02*
X01343Y02742D01*
X01336Y02739*
X01331Y02735*
X01327Y0273*
X01324Y02723*
X01323Y02717*
X01324Y0271*
X01327Y02704*
X01331Y02698*
X01336Y02694*
X01343Y02692*
X01349Y02691*
X01356Y02692*
X01362Y02694*
X01368Y02698*
X01372Y02704*
X01374Y0271*
X01375Y02717*
X01374Y02723*
X01372Y0273*
X01368Y02735*
X01362Y02739*
X01356Y02742*
X01349Y02743*
G37*
G36*
X0155Y02743D02*
X01543Y02742D01*
X01537Y02739*
X01531Y02735*
X01527Y0273*
X01524Y02723*
X01524Y02717*
X01524Y0271*
X01527Y02704*
X01531Y02698*
X01537Y02694*
X01543Y02691*
X0155Y02691*
X01556Y02691*
X01563Y02694*
X01568Y02698*
X01572Y02704*
X01575Y0271*
X01576Y02717*
X01575Y02723*
X01572Y0273*
X01568Y02735*
X01563Y02739*
X01556Y02742*
X0155Y02743*
G37*
G36*
X02448Y0275D02*
X02439Y02749D01*
X0243Y02745*
X02423Y02739*
X02417Y02732*
X02414Y02724*
X02412Y02714*
X02414Y02705*
X02417Y02697*
X02423Y02689*
X0243Y02684*
X02439Y0268*
X02448Y02679*
X02457Y0268*
X02465Y02684*
X02473Y02689*
X02478Y02697*
X02482Y02705*
X02483Y02714*
X02482Y02724*
X02478Y02732*
X02473Y02739*
X02465Y02745*
X02457Y02749*
X02448Y0275*
G37*
G36*
X02266Y02705D02*
Y02676D01*
X02295*
X02295Y0268*
X02291Y02688*
X02285Y02695*
X02278Y02701*
X0227Y02705*
X02266Y02705*
G37*
G36*
X02256D02*
X02251Y02705D01*
X02243Y02701*
X02236Y02695*
X0223Y02688*
X02226Y0268*
X02226Y02676*
X02256*
Y02705*
G37*
G36*
X0183Y02695D02*
X0181D01*
Y02674*
X01811Y02674*
X01817Y02677*
X01823Y02681*
X01827Y02687*
X0183Y02693*
X0183Y02695*
G37*
G36*
X018D02*
X01779D01*
X01779Y02693*
X01782Y02687*
X01786Y02681*
X01792Y02677*
X01798Y02674*
X018Y02674*
Y02695*
G37*
G36*
X0106Y0271D02*
X0105Y02709D01*
X01042Y02705*
X01035Y02699*
X01029Y02692*
X01025Y02684*
X01024Y02675*
X01025Y02665*
X01029Y02657*
X01035Y0265*
X01042Y02644*
X0105Y0264*
X0106Y02639*
X01069Y0264*
X01077Y02644*
X01084Y0265*
X0109Y02657*
X01094Y02665*
X01095Y02675*
X01094Y02684*
X0109Y02692*
X01084Y02699*
X01077Y02705*
X01069Y02709*
X0106Y0271*
G37*
G36*
X01902Y0271D02*
X01893Y02708D01*
X01884Y02705*
X01877Y02699*
X01871Y02692*
X01868Y02683*
X01867Y02674*
X01868Y02665*
X01871Y02657*
X01877Y02649*
X01884Y02644*
X01893Y0264*
X01902Y02639*
X01911Y0264*
X0192Y02644*
X01927Y02649*
X01933Y02657*
X01936Y02665*
X01937Y02674*
X01936Y02683*
X01933Y02692*
X01927Y02699*
X0192Y02705*
X01911Y02708*
X01902Y0271*
G37*
G36*
X02295Y02666D02*
X02266D01*
Y02636*
X0227Y02636*
X02278Y0264*
X02285Y02646*
X02291Y02653*
X02295Y02661*
X02295Y02666*
G37*
G36*
X02256D02*
X02226D01*
X02226Y02661*
X0223Y02653*
X02236Y02646*
X02243Y0264*
X02251Y02636*
X02256Y02636*
Y02666*
G37*
G36*
X01236Y02686D02*
X0123Y02685D01*
X01223Y02682*
X01218Y02678*
X01214Y02673*
X01211Y02667*
X0121Y0266*
X01211Y02653*
X01214Y02647*
X01218Y02642*
X01223Y02637*
X0123Y02635*
X01236Y02634*
X01243Y02635*
X01249Y02637*
X01255Y02642*
X01259Y02647*
X01262Y02653*
X01262Y0266*
X01262Y02667*
X01259Y02673*
X01255Y02678*
X01249Y02682*
X01243Y02685*
X01236Y02686*
G37*
G36*
X01692Y02622D02*
Y02602D01*
X01712*
X01712Y02603*
X01709Y0261*
X01705Y02615*
X01699Y02619*
X01693Y02622*
X01692Y02622*
G37*
G36*
X01682D02*
X0168Y02622D01*
X01674Y02619*
X01668Y02615*
X01664Y0261*
X01661Y02603*
X01661Y02602*
X01682*
Y02622*
G37*
G36*
X01947Y02631D02*
Y02602D01*
X01976*
X01976Y02606*
X01972Y02614*
X01966Y02621*
X01959Y02627*
X01951Y02631*
X01947Y02631*
G37*
G36*
X01937D02*
X01932Y02631D01*
X01924Y02627*
X01917Y02621*
X01911Y02614*
X01907Y02606*
X01907Y02602*
X01937*
Y02631*
G37*
G36*
X0128Y02644D02*
X01273Y02643D01*
X01267Y0264*
X01261Y02636*
X01257Y02631*
X01254Y02624*
X01254Y02618*
X01254Y02611*
X01257Y02605*
X01261Y02599*
X01267Y02595*
X01273Y02592*
X0128Y02592*
X01286Y02592*
X01292Y02595*
X01298Y02599*
X01302Y02605*
X01305Y02611*
X01305Y02618*
X01305Y02624*
X01302Y02631*
X01298Y02636*
X01292Y0264*
X01286Y02643*
X0128Y02644*
G37*
G36*
X01712Y02592D02*
X01692D01*
Y02571*
X01693Y02571*
X01699Y02574*
X01705Y02578*
X01709Y02584*
X01712Y0259*
X01712Y02592*
G37*
G36*
X01682D02*
X01661D01*
X01661Y0259*
X01664Y02584*
X01668Y02578*
X01674Y02574*
X0168Y02571*
X01682Y02571*
Y02592*
G37*
G36*
X01976Y02592D02*
X01947D01*
Y02562*
X01951Y02562*
X01959Y02566*
X01966Y02572*
X01972Y02579*
X01976Y02587*
X01976Y02592*
G37*
G36*
X01937D02*
X01907D01*
X01907Y02587*
X01911Y02579*
X01917Y02572*
X01924Y02566*
X01932Y02562*
X01937Y02562*
Y02592*
G37*
G36*
X01524Y02535D02*
X01515Y02534D01*
X01507Y0253*
X01499Y02525*
X01494Y02517*
X0149Y02509*
X01489Y025*
X0149Y0249*
X01494Y02482*
X01499Y02475*
X01507Y02469*
X01515Y02465*
X01524Y02464*
X01534Y02465*
X01542Y02469*
X01549Y02475*
X01555Y02482*
X01559Y0249*
X0156Y025*
X01559Y02509*
X01555Y02517*
X01549Y02525*
X01542Y0253*
X01534Y02534*
X01524Y02535*
G37*
G36*
X01772Y02397D02*
Y02377D01*
X01792*
X01792Y02378*
X01789Y02384*
X01785Y0239*
X01779Y02394*
X01773Y02397*
X01772Y02397*
G37*
G36*
X01762D02*
X0176Y02397D01*
X01754Y02394*
X01748Y0239*
X01744Y02384*
X01741Y02378*
X01741Y02377*
X01762*
Y02397*
G37*
G36*
X01792Y02367D02*
X01772D01*
Y02346*
X01773Y02346*
X01779Y02349*
X01785Y02353*
X01789Y02359*
X01792Y02365*
X01792Y02367*
G37*
G36*
X01762D02*
X01741D01*
X01741Y02365*
X01744Y02359*
X01748Y02353*
X01754Y02349*
X0176Y02346*
X01762Y02346*
Y02367*
G37*
G36*
X01897Y02351D02*
Y02331D01*
X01917*
X01917Y02332*
X01914Y02338*
X0191Y02344*
X01904Y02348*
X01898Y02351*
X01897Y02351*
G37*
G36*
X01887D02*
X01885Y02351D01*
X01879Y02348*
X01873Y02344*
X01869Y02338*
X01866Y02332*
X01866Y02331*
X01887*
Y02351*
G37*
G36*
X01917Y02321D02*
X01897D01*
Y023*
X01898Y023*
X01904Y02303*
X0191Y02307*
X01914Y02313*
X01917Y02319*
X01917Y02321*
G37*
G36*
X01887D02*
X01866D01*
X01866Y02319*
X01869Y02313*
X01873Y02307*
X01879Y02303*
X01885Y023*
X01887Y023*
Y02321*
G37*
G36*
X01963Y02278D02*
Y02249D01*
X01992*
X01992Y02253*
X01988Y02261*
X01983Y02268*
X01975Y02274*
X01967Y02278*
X01963Y02278*
G37*
G36*
X01953D02*
X01949Y02278D01*
X0194Y02274*
X01933Y02268*
X01927Y02261*
X01924Y02253*
X01923Y02249*
X01953*
Y02278*
G37*
G36*
X01535Y02298D02*
X01526Y02297D01*
X01517Y02293*
X0151Y02288*
X01504Y0228*
X01501Y02272*
X015Y02263*
X01501Y02254*
X01504Y02245*
X0151Y02238*
X01517Y02232*
X01526Y02229*
X01535Y02227*
X01544Y02229*
X01553Y02232*
X0156Y02238*
X01566Y02245*
X01569Y02254*
X0157Y02263*
X01569Y02272*
X01566Y0228*
X0156Y02288*
X01553Y02293*
X01544Y02297*
X01535Y02298*
G37*
G36*
X0244Y02295D02*
X0243Y02294D01*
X02422Y0229*
X02415Y02284*
X02409Y02277*
X02405Y02269*
X02404Y0226*
X02405Y0225*
X02409Y02242*
X02415Y02235*
X02422Y02229*
X0243Y02225*
X0244Y02224*
X02449Y02225*
X02457Y02229*
X02464Y02235*
X0247Y02242*
X02474Y0225*
X02475Y0226*
X02474Y02269*
X0247Y02277*
X02464Y02284*
X02457Y0229*
X02449Y02294*
X0244Y02295*
G37*
G36*
X01114Y02245D02*
Y02215D01*
X01144*
X01143Y02219*
X0114Y02228*
X01134Y02235*
X01127Y02241*
X01118Y02244*
X01114Y02245*
G37*
G36*
X01104D02*
X011Y02244D01*
X01092Y02241*
X01084Y02235*
X01079Y02228*
X01075Y02219*
X01075Y02215*
X01104*
Y02245*
G37*
G36*
X01992Y02239D02*
X01963D01*
Y02209*
X01967Y02209*
X01975Y02213*
X01983Y02219*
X01988Y02226*
X01992Y02234*
X01992Y02239*
G37*
G36*
X01953D02*
X01923D01*
X01924Y02234*
X01927Y02226*
X01933Y02219*
X0194Y02213*
X01949Y02209*
X01953Y02209*
Y02239*
G37*
G36*
X01358Y02234D02*
Y02204D01*
X01388*
X01388Y02208*
X01384Y02217*
X01378Y02224*
X01371Y0223*
X01363Y02233*
X01358Y02234*
G37*
G36*
X01348D02*
X01344Y02233D01*
X01336Y0223*
X01328Y02224*
X01323Y02217*
X01319Y02208*
X01319Y02204*
X01348*
Y02234*
G37*
G36*
X01144Y02205D02*
X01114D01*
Y02175*
X01118Y02176*
X01127Y0218*
X01134Y02185*
X0114Y02192*
X01143Y02201*
X01144Y02205*
G37*
G36*
X01104D02*
X01075D01*
X01075Y02201*
X01079Y02192*
X01084Y02185*
X01092Y0218*
X011Y02176*
X01104Y02175*
Y02205*
G37*
G36*
X01388Y02194D02*
X01358D01*
Y02165*
X01363Y02165*
X01371Y02169*
X01378Y02174*
X01384Y02182*
X01388Y0219*
X01388Y02194*
G37*
G36*
X01348D02*
X01319D01*
X01319Y0219*
X01323Y02182*
X01328Y02174*
X01336Y02169*
X01344Y02165*
X01348Y02165*
Y02194*
G37*
G36*
X01664Y01977D02*
Y01947D01*
X01694*
X01693Y01952*
X0169Y0196*
X01684Y01967*
X01677Y01973*
X01668Y01977*
X01664Y01977*
G37*
G36*
X01654D02*
X0165Y01977D01*
X01641Y01973*
X01634Y01967*
X01628Y0196*
X01625Y01952*
X01624Y01947*
X01654*
Y01977*
G37*
G36*
X01694Y01937D02*
X01664D01*
Y01908*
X01668Y01908*
X01677Y01912*
X01684Y01917*
X0169Y01925*
X01693Y01933*
X01694Y01937*
G37*
G36*
X01654D02*
X01624D01*
X01625Y01933*
X01628Y01925*
X01634Y01917*
X01641Y01912*
X0165Y01908*
X01654Y01908*
Y01937*
G37*
G36*
X01555Y01934D02*
Y01905D01*
X01584*
X01584Y01909*
X0158Y01917*
X01574Y01924*
X01567Y0193*
X01559Y01934*
X01555Y01934*
G37*
G36*
X01545D02*
X0154Y01934D01*
X01532Y0193*
X01525Y01924*
X01519Y01917*
X01515Y01909*
X01515Y01905*
X01545*
Y01934*
G37*
G36*
X00966Y01903D02*
Y01874D01*
X00995*
X00995Y01878*
X00991Y01886*
X00986Y01894*
X00978Y01899*
X0097Y01903*
X00966Y01903*
G37*
G36*
X00956D02*
X00952Y01903D01*
X00943Y01899*
X00936Y01894*
X0093Y01886*
X00927Y01878*
X00926Y01874*
X00956*
Y01903*
G37*
G36*
X01584Y01895D02*
X01555D01*
Y01865*
X01559Y01865*
X01567Y01869*
X01574Y01875*
X0158Y01882*
X01584Y0189*
X01584Y01895*
G37*
G36*
X01545D02*
X01515D01*
X01515Y0189*
X01519Y01882*
X01525Y01875*
X01532Y01869*
X0154Y01865*
X01545Y01865*
Y01895*
G37*
G36*
X01371Y01895D02*
X01365Y01895D01*
X01358Y01892*
X01353Y01888*
X01349Y01883*
X01346Y01876*
X01345Y0187*
X01346Y01863*
X01349Y01857*
X01353Y01851*
X01358Y01847*
X01365Y01844*
X01371Y01844*
X01378Y01844*
X01384Y01847*
X0139Y01851*
X01394Y01857*
X01396Y01863*
X01397Y0187*
X01396Y01876*
X01394Y01883*
X0139Y01888*
X01384Y01892*
X01378Y01895*
X01371Y01895*
G37*
G36*
X00995Y01864D02*
X00966D01*
Y01834*
X0097Y01834*
X00978Y01838*
X00986Y01844*
X00991Y01851*
X00995Y01859*
X00995Y01864*
G37*
G36*
X00956D02*
X00926D01*
X00927Y01859*
X0093Y01851*
X00936Y01844*
X00943Y01838*
X00952Y01834*
X00956Y01834*
Y01864*
G37*
G36*
X01835Y0185D02*
X01828Y01849D01*
X01822Y01847*
X01817Y01842*
X01812Y01837*
X0181Y01831*
X01809Y01824*
X0181Y01817*
X01812Y01811*
X01817Y01806*
X01822Y01802*
X01828Y01799*
X01835Y01798*
X01842Y01799*
X01848Y01802*
X01853Y01806*
X01857Y01811*
X0186Y01817*
X01861Y01824*
X0186Y01831*
X01857Y01837*
X01853Y01842*
X01848Y01847*
X01842Y01849*
X01835Y0185*
G37*
G36*
X02677Y0185D02*
X02664Y01849D01*
X02653Y01844*
X02643Y01836*
X02635Y01827*
X0263Y01815*
X02629Y01803*
X0263Y0179*
X02635Y01779*
X02643Y01769*
X02653Y01761*
X02664Y01756*
X02677Y01755*
X02689Y01756*
X02701Y01761*
X0271Y01769*
X02718Y01779*
X02723Y0179*
X02724Y01803*
X02723Y01815*
X02718Y01827*
X0271Y01836*
X02701Y01844*
X02689Y01849*
X02677Y0185*
G37*
G36*
X02621Y01691D02*
X02612Y01689D01*
X02604Y01686*
X02596Y0168*
X02591Y01673*
X02587Y01664*
X02586Y01655*
X02587Y01646*
X02591Y01638*
X02596Y0163*
X02604Y01625*
X02612Y01621*
X02621Y0162*
X02631Y01621*
X02639Y01625*
X02646Y0163*
X02652Y01638*
X02656Y01646*
X02657Y01655*
X02656Y01664*
X02652Y01673*
X02646Y0168*
X02639Y01686*
X02631Y01689*
X02621Y01691*
G37*
G36*
X01215Y01577D02*
Y01557D01*
X01236*
X01236Y01558*
X01233Y01565*
X01229Y0157*
X01223Y01574*
X01217Y01577*
X01215Y01577*
G37*
G36*
X01205D02*
X01204Y01577D01*
X01197Y01574*
X01192Y0157*
X01188Y01565*
X01185Y01558*
X01185Y01557*
X01205*
Y01577*
G37*
G36*
X02125Y01584D02*
Y01555D01*
X02154*
X02154Y01559*
X0215Y01567*
X02144Y01574*
X02137Y0158*
X02129Y01584*
X02125Y01584*
G37*
G36*
X01236Y01547D02*
X01215D01*
Y01526*
X01217Y01527*
X01223Y01529*
X01229Y01533*
X01233Y01539*
X01236Y01545*
X01236Y01547*
G37*
G36*
X01205D02*
X01185D01*
X01185Y01545*
X01188Y01539*
X01192Y01533*
X01197Y01529*
X01204Y01527*
X01205Y01526*
Y01547*
G37*
G36*
X01392Y01589D02*
X01383Y01588D01*
X01374Y01584*
X01367Y01579*
X01361Y01571*
X01358Y01563*
X01357Y01554*
X01358Y01544*
X01361Y01536*
X01367Y01529*
X01374Y01523*
X01383Y0152*
X01392Y01518*
X01401Y0152*
X01409Y01523*
X01417Y01529*
X01422Y01536*
X01426Y01544*
X01427Y01554*
X01426Y01563*
X01422Y01571*
X01417Y01579*
X01409Y01584*
X01401Y01588*
X01392Y01589*
G37*
G36*
X01765Y01514D02*
Y01485D01*
X01794*
X01794Y01489*
X0179Y01497*
X01784Y01504*
X01777Y0151*
X01769Y01514*
X01765Y01514*
G37*
G36*
X01755D02*
X0175Y01514D01*
X01742Y0151*
X01735Y01504*
X01729Y01497*
X01725Y01489*
X01725Y01485*
X01755*
Y01514*
G37*
G36*
X01538Y01526D02*
X01531Y01525D01*
X01525Y01522*
X0152Y01518*
X01516Y01513*
X01513Y01507*
X01512Y015*
X01513Y01493*
X01516Y01487*
X0152Y01482*
X01525Y01478*
X01531Y01475*
X01538Y01474*
X01545Y01475*
X01551Y01478*
X01556Y01482*
X01561Y01487*
X01563Y01493*
X01564Y015*
X01563Y01507*
X01561Y01513*
X01556Y01518*
X01551Y01522*
X01545Y01525*
X01538Y01526*
G37*
G36*
X0197Y01515D02*
X01963Y01515D01*
X01957Y01512*
X01951Y01508*
X01947Y01502*
X01944Y01496*
X01944Y0149*
X01944Y01483*
X01947Y01477*
X01951Y01471*
X01957Y01467*
X01963Y01464*
X0197Y01464*
X01976Y01464*
X01982Y01467*
X01988Y01471*
X01992Y01477*
X01995Y01483*
X01995Y0149*
X01995Y01496*
X01992Y01502*
X01988Y01508*
X01982Y01512*
X01976Y01515*
X0197Y01515*
G37*
G36*
X01794Y01475D02*
X01765D01*
Y01445*
X01769Y01445*
X01777Y01449*
X01784Y01455*
X0179Y01462*
X01794Y0147*
X01794Y01475*
G37*
G36*
X01755D02*
X01725D01*
X01725Y0147*
X01729Y01462*
X01735Y01455*
X01742Y01449*
X0175Y01445*
X01755Y01445*
Y01475*
G37*
G36*
X013Y01495D02*
X01293Y01495D01*
X01287Y01492*
X01281Y01488*
X01277Y01482*
X01274Y01476*
X01274Y0147*
X01274Y01463*
X01277Y01457*
X01281Y01451*
X01287Y01447*
X01293Y01444*
X013Y01444*
X01306Y01444*
X01312Y01447*
X01318Y01451*
X01322Y01457*
X01325Y01463*
X01325Y0147*
X01325Y01476*
X01322Y01482*
X01318Y01488*
X01312Y01492*
X01306Y01495*
X013Y01495*
G37*
G36*
X01005Y0148D02*
X00998Y0148D01*
X00992Y01477*
X00986Y01473*
X00982Y01467*
X00979Y01461*
X00979Y01455*
X00979Y01448*
X00982Y01442*
X00986Y01436*
X00992Y01432*
X00998Y01429*
X01005Y01429*
X01011Y01429*
X01017Y01432*
X01023Y01436*
X01027Y01442*
X0103Y01448*
X0103Y01455*
X0103Y01461*
X01027Y01467*
X01023Y01473*
X01017Y01477*
X01011Y0148*
X01005Y0148*
G37*
G36*
X01651Y01427D02*
Y01407D01*
X01672*
X01671Y01409*
X01669Y01415*
X01665Y0142*
X01659Y01424*
X01653Y01427*
X01651Y01427*
G37*
G36*
X01641D02*
X0164Y01427D01*
X01633Y01424*
X01628Y0142*
X01624Y01415*
X01621Y01409*
X01621Y01407*
X01641*
Y01427*
G37*
G36*
X01856Y01422D02*
Y01402D01*
X01876*
X01876Y01403*
X01873Y0141*
X01869Y01415*
X01864Y01419*
X01857Y01422*
X01856Y01422*
G37*
G36*
X01846D02*
X01844Y01422D01*
X01838Y01419*
X01832Y01415*
X01828Y0141*
X01826Y01403*
X01825Y01402*
X01846*
Y01422*
G37*
G36*
X01153Y0142D02*
Y014D01*
X01173*
X01173Y01402*
X01171Y01408*
X01166Y01414*
X01161Y01418*
X01155Y0142*
X01153Y0142*
G37*
G36*
X01143D02*
X01141Y0142D01*
X01135Y01418*
X0113Y01414*
X01126Y01408*
X01123Y01402*
X01123Y014*
X01143*
Y0142*
G37*
G36*
X01672Y01397D02*
X01651D01*
Y01377*
X01653Y01377*
X01659Y01379*
X01665Y01384*
X01669Y01389*
X01671Y01395*
X01672Y01397*
G37*
G36*
X01641D02*
X01621D01*
X01621Y01395*
X01624Y01389*
X01628Y01384*
X01633Y01379*
X0164Y01377*
X01641Y01377*
Y01397*
G37*
G36*
X01876Y01392D02*
X01856D01*
Y01371*
X01857Y01372*
X01864Y01374*
X01869Y01378*
X01873Y01384*
X01876Y0139*
X01876Y01392*
G37*
G36*
X01846D02*
X01825D01*
X01826Y0139*
X01828Y01384*
X01832Y01378*
X01838Y01374*
X01844Y01372*
X01846Y01371*
Y01392*
G37*
G36*
X0145Y01423D02*
X01443Y01422D01*
X01437Y0142*
X01431Y01416*
X01427Y0141*
X01425Y01404*
X01424Y01397*
X01425Y01391*
X01427Y01384*
X01431Y01379*
X01437Y01375*
X01443Y01372*
X0145Y01371*
X01456Y01372*
X01463Y01375*
X01468Y01379*
X01472Y01384*
X01475Y01391*
X01476Y01397*
X01475Y01404*
X01472Y0141*
X01468Y01416*
X01463Y0142*
X01456Y01422*
X0145Y01423*
G37*
G36*
X01173Y0139D02*
X01153D01*
Y0137*
X01155Y0137*
X01161Y01373*
X01166Y01377*
X01171Y01382*
X01173Y01388*
X01173Y0139*
G37*
G36*
X01143D02*
X01123D01*
X01123Y01388*
X01126Y01382*
X0113Y01377*
X01135Y01373*
X01141Y0137*
X01143Y0137*
Y0139*
G37*
G36*
X00944Y0137D02*
X00937Y0137D01*
X00931Y01367*
X00925Y01363*
X00921Y01357*
X00919Y01351*
X00918Y01344*
X00919Y01338*
X00921Y01331*
X00925Y01326*
X00931Y01322*
X00937Y01319*
X00944Y01318*
X0095Y01319*
X00957Y01322*
X00962Y01326*
X00966Y01331*
X00969Y01338*
X0097Y01344*
X00969Y01351*
X00966Y01357*
X00962Y01363*
X00957Y01367*
X0095Y0137*
X00944Y0137*
G37*
G36*
X0188Y01235D02*
Y01215D01*
X019*
X019Y01217*
X01897Y01223*
X01893Y01228*
X01888Y01233*
X01881Y01235*
X0188Y01235*
G37*
G36*
X0187D02*
X01868Y01235D01*
X01862Y01233*
X01856Y01228*
X01852Y01223*
X0185Y01217*
X01849Y01215*
X0187*
Y01235*
G37*
G36*
X01492Y01243D02*
X01483Y01242D01*
X01475Y01237*
X0147Y01229*
X01469Y0122*
X0147Y01212*
X01475Y01204*
X01483Y01199*
X01492Y01197*
X015Y01199*
X01508Y01204*
X01513Y01212*
X01514Y0122*
X01513Y01229*
X01508Y01237*
X015Y01242*
X01492Y01243*
G37*
G36*
X019Y01205D02*
X0188D01*
Y01185*
X01881Y01185*
X01888Y01188*
X01893Y01192*
X01897Y01197*
X019Y01203*
X019Y01205*
G37*
G36*
X0187D02*
X01849D01*
X0185Y01203*
X01852Y01197*
X01856Y01192*
X01862Y01188*
X01868Y01185*
X0187Y01185*
Y01205*
G37*
G36*
X01393Y01237D02*
X01387Y01236D01*
X0138Y01233*
X01375Y01229*
X01371Y01224*
X01368Y01217*
X01367Y01211*
X01368Y01204*
X01371Y01198*
X01375Y01192*
X0138Y01188*
X01387Y01186*
X01393Y01185*
X014Y01186*
X01406Y01188*
X01412Y01192*
X01416Y01198*
X01418Y01204*
X01419Y01211*
X01418Y01217*
X01416Y01224*
X01412Y01229*
X01406Y01233*
X014Y01236*
X01393Y01237*
G37*
G36*
X01966Y01253D02*
X01957Y01252D01*
X01948Y01249*
X01941Y01243*
X01935Y01236*
X01932Y01227*
X01931Y01218*
X01932Y01209*
X01935Y012*
X01941Y01193*
X01948Y01187*
X01957Y01184*
X01966Y01183*
X01975Y01184*
X01984Y01187*
X01991Y01193*
X01997Y012*
X02Y01209*
X02001Y01218*
X02Y01227*
X01997Y01236*
X01991Y01243*
X01984Y01249*
X01975Y01252*
X01966Y01253*
G37*
G36*
X01335Y01231D02*
X01328Y0123D01*
X01322Y01228*
X01317Y01223*
X01313Y01218*
X0131Y01212*
X01309Y01205*
X0131Y01198*
X01313Y01192*
X01317Y01187*
X01322Y01183*
X01328Y0118*
X01335Y01179*
X01342Y0118*
X01348Y01183*
X01353Y01187*
X01358Y01192*
X0136Y01198*
X01361Y01205*
X0136Y01212*
X01358Y01218*
X01353Y01223*
X01348Y01228*
X01342Y0123*
X01335Y01231*
G37*
G36*
X01011Y01241D02*
X01003Y0124D01*
X00995Y01237*
X00988Y01231*
X00983Y01225*
X0098Y01217*
X00978Y01208*
X0098Y012*
X00983Y01192*
X00988Y01185*
X00995Y0118*
X01003Y01177*
X01011Y01175*
X0102Y01177*
X01028Y0118*
X01034Y01185*
X0104Y01192*
X01043Y012*
X01044Y01208*
X01043Y01217*
X0104Y01225*
X01034Y01231*
X01028Y01237*
X0102Y0124*
X01011Y01241*
G37*
G36*
X01559Y01239D02*
X01553Y01238D01*
X01546Y01236*
X01541Y01232*
X01537Y01226*
X01534Y0122*
X01533Y01213*
X01534Y01206*
X01537Y012*
X01541Y01195*
X01546Y01191*
X01553Y01188*
X01559Y01187*
X01566Y01188*
X01572Y01191*
X01578Y01195*
X0158Y01198*
X01586Y01198*
X01588Y01196*
X01596Y0119*
X01606Y01188*
X01615Y0119*
X01624Y01196*
X01627Y01201*
X01627Y01201*
X01632Y01199*
X01633Y01194*
X01635Y01188*
X01639Y01182*
X01645Y01178*
X01651Y01175*
X01658Y01175*
X01664Y01175*
X01671Y01178*
X01676Y01182*
X0168Y01188*
X01683Y01194*
X01684Y01201*
X01683Y01207*
X0168Y01214*
X01676Y01219*
X01671Y01223*
X01664Y01226*
X01658Y01227*
X01651Y01226*
X01645Y01223*
X01639Y01219*
X01636Y01214*
X01633Y01215*
X01631Y01215*
X01629Y01223*
X01624Y01232*
X01615Y01237*
X01606Y01239*
X01596Y01237*
X01588Y01232*
X01586Y01229*
X0158Y01229*
X01578Y01232*
X01572Y01236*
X01566Y01238*
X01559Y01239*
G37*
G36*
X01733Y01224D02*
X01726Y01223D01*
X0172Y01221*
X01715Y01217*
X0171Y01211*
X01708Y01205*
X01707Y01198*
X01708Y01191*
X0171Y01185*
X01715Y0118*
X0172Y01176*
X01726Y01173*
X01733Y01172*
X0174Y01173*
X01746Y01176*
X01751Y0118*
X01755Y01185*
X01758Y01191*
X01759Y01198*
X01758Y01205*
X01755Y01211*
X01751Y01217*
X01746Y01221*
X0174Y01223*
X01733Y01224*
G37*
G36*
X0248Y01216D02*
X02471Y01215D01*
X02462Y01211*
X02455Y01206*
X02449Y01198*
X02446Y0119*
X02445Y01181*
X02446Y01171*
X02449Y01163*
X02455Y01156*
X02462Y0115*
X02471Y01147*
X0248Y01145*
X02489Y01147*
X02497Y0115*
X02505Y01156*
X0251Y01163*
X02514Y01171*
X02515Y01181*
X02514Y0119*
X0251Y01198*
X02505Y01206*
X02497Y01211*
X02489Y01215*
X0248Y01216*
G37*
G36*
X02677Y01158D02*
X02664Y01156D01*
X02653Y01151*
X02643Y01144*
X02635Y01134*
X0263Y01122*
X02629Y0111*
X0263Y01097*
X02635Y01086*
X02643Y01076*
X02653Y01068*
X02664Y01064*
X02677Y01062*
X02689Y01064*
X02701Y01068*
X0271Y01076*
X02718Y01086*
X02723Y01097*
X02724Y0111*
X02723Y01122*
X02718Y01134*
X0271Y01144*
X02701Y01151*
X02689Y01156*
X02677Y01158*
G37*
G36*
X01154Y01052D02*
Y01031D01*
X01175*
X01174Y01033*
X01172Y01039*
X01168Y01045*
X01162Y01049*
X01156Y01051*
X01154Y01052*
G37*
G36*
X01144D02*
X01143Y01051D01*
X01136Y01049*
X01131Y01045*
X01127Y01039*
X01124Y01033*
X01124Y01031*
X01144*
Y01052*
G37*
G36*
X01965Y01035D02*
Y01015D01*
X01985*
X01985Y01016*
X01982Y01022*
X01978Y01028*
X01972Y01032*
X01966Y01035*
X01965Y01035*
G37*
G36*
X01955D02*
X01953Y01035D01*
X01947Y01032*
X01941Y01028*
X01937Y01022*
X01934Y01016*
X01934Y01015*
X01955*
Y01035*
G37*
G36*
X019Y01025D02*
Y01005D01*
X0192*
X0192Y01006*
X01917Y01012*
X01913Y01018*
X01907Y01022*
X01901Y01025*
X019Y01025*
G37*
G36*
X0189D02*
X01888Y01025D01*
X01882Y01022*
X01876Y01018*
X01872Y01012*
X01869Y01006*
X01869Y01005*
X0189*
Y01025*
G37*
G36*
X01175Y01021D02*
X01154D01*
Y01001*
X01156Y01001*
X01162Y01004*
X01168Y01008*
X01172Y01013*
X01174Y0102*
X01175Y01021*
G37*
G36*
X01144D02*
X01124D01*
X01124Y0102*
X01127Y01013*
X01131Y01008*
X01136Y01004*
X01143Y01001*
X01144Y01001*
Y01021*
G37*
G36*
X01549Y01043D02*
X01542Y01042D01*
X01536Y0104*
X0153Y01036*
X01526Y0103*
X01524Y01024*
X01523Y01017*
X01524Y01011*
X01526Y01004*
X0153Y00999*
X01536Y00995*
X01542Y00992*
X01549Y00991*
X01555Y00992*
X01562Y00995*
X01567Y00999*
X01571Y01004*
X01574Y01011*
X01575Y01017*
X01574Y01024*
X01571Y0103*
X01567Y01036*
X01562Y0104*
X01555Y01042*
X01549Y01043*
G37*
G36*
X01645Y01042D02*
X01639Y01041D01*
X01632Y01039*
X01627Y01035*
X01623Y01029*
X0162Y01023*
X01619Y01016*
X0162Y0101*
X01623Y01003*
X01627Y00998*
X01632Y00994*
X01639Y00991*
X01645Y0099*
X01652Y00991*
X01658Y00994*
X01664Y00998*
X01668Y01003*
X0167Y0101*
X01671Y01016*
X0167Y01023*
X01668Y01029*
X01664Y01035*
X01658Y01039*
X01652Y01041*
X01645Y01042*
G37*
G36*
X01453Y01042D02*
X01446Y01041D01*
X0144Y01039*
X01435Y01035*
X0143Y01029*
X01428Y01023*
X01427Y01016*
X01428Y01009*
X0143Y01003*
X01435Y00998*
X0144Y00994*
X01446Y00991*
X01453Y0099*
X0146Y00991*
X01466Y00994*
X01471Y00998*
X01475Y01003*
X01478Y01009*
X01479Y01016*
X01478Y01023*
X01475Y01029*
X01471Y01035*
X01466Y01039*
X0146Y01041*
X01453Y01042*
G37*
G36*
X01351D02*
X01344Y01041D01*
X01338Y01039*
X01333Y01035*
X01329Y01029*
X01326Y01023*
X01325Y01016*
X01326Y01009*
X01329Y01003*
X01333Y00998*
X01338Y00994*
X01344Y00991*
X01351Y0099*
X01358Y00991*
X01364Y00994*
X01369Y00998*
X01374Y01003*
X01376Y01009*
X01377Y01016*
X01376Y01023*
X01374Y01029*
X01369Y01035*
X01364Y01039*
X01358Y01041*
X01351Y01042*
G37*
G36*
X01985Y01005D02*
X01965D01*
Y00984*
X01966Y00984*
X01972Y00987*
X01978Y00991*
X01982Y00997*
X01985Y01003*
X01985Y01005*
G37*
G36*
X01955D02*
X01934D01*
X01934Y01003*
X01937Y00997*
X01941Y00991*
X01947Y00987*
X01953Y00984*
X01955Y00984*
Y01005*
G37*
G36*
X0192Y00995D02*
X019D01*
Y00974*
X01901Y00974*
X01907Y00977*
X01913Y00981*
X01917Y00987*
X0192Y00993*
X0192Y00995*
G37*
G36*
X0189D02*
X01869D01*
X01869Y00993*
X01872Y00987*
X01876Y00981*
X01882Y00977*
X01888Y00974*
X0189Y00974*
Y00995*
G37*
%LNmain-3*%
%LPD*%
G54D52*
X0226Y01271D03*
Y0131D03*
Y0135D03*
Y01114D03*
Y01074D03*
Y01035D03*
X0218Y01114D03*
X02221D03*
X0218Y01074D03*
X02221D03*
X0214Y01114D03*
Y01074D03*
Y01035D03*
X02221D03*
X0218D03*
Y01271D03*
X02221D03*
X0214D03*
Y0131D03*
Y0135D03*
X01149Y02733D03*
X01851Y01397D03*
X01905Y0291D03*
X01767Y02372D03*
X01646Y01402D03*
X01149Y01026D03*
X02221Y0131D03*
X0218D03*
X02221Y0135D03*
X0218D03*
X01687Y02597D03*
X01892Y02326D03*
X01875Y0121D03*
X0196Y0101D03*
X01895Y01D03*
X01655Y03104D03*
X01805Y027D03*
X01148Y03094D03*
X01148Y01395D03*
X0121Y01552D03*
G54D64*
X01659Y01942D03*
X01942Y02597D03*
X0176Y0148D03*
X0212Y0155D03*
X0268Y014D03*
X0262D03*
X0268Y0146D03*
X0262D03*
X0155Y019D03*
X02361Y02371D03*
X02261Y02671D03*
X01958Y02244D03*
X02503Y02441D03*
X02362Y02311D03*
X02431Y02441D03*
X01109Y0221D03*
X01353Y02199D03*
X00961Y01869D03*
X02633Y02774D03*
X0257D03*
Y02833D03*
X02633D03*
X02291Y01972D03*
X02606Y02071D03*
Y0213D03*
X02625Y02248D03*
X02606Y02189D03*
X02358Y01972D03*
M02*