%FSTAX23Y23*%
%MOIN*%
%SFA1B1*%

%IPPOS*%
%ADD17R,0.037646X0.047488*%
%ADD27R,0.033465X0.035433*%
%ADD35R,0.102488X0.090677*%
%ADD36R,0.047370X0.116267*%
%ADD37O,0.047370X0.116267*%
%ADD38R,0.039496X0.039496*%
%ADD39R,0.185165X0.063118*%
%ADD40R,0.040677X0.032803*%
%ADD41R,0.041464X0.037527*%
%ADD42R,0.070992X0.070992*%
%ADD43R,0.051307X0.070992*%
%ADD44R,0.035559X0.086740*%
%ADD45O,0.035559X0.086740*%
%ADD46O,0.106425X0.035559*%
%ADD47R,0.047370X0.126110*%
%ADD48R,0.092645X0.094614*%
%ADD49R,0.039496X0.045992*%
%ADD50R,0.031622X0.039496*%
%ADD51C,0.082803*%
%ADD52C,0.031496*%
%ADD53C,0.039496*%
%ADD54C,0.058000*%
%ADD55C,0.033000*%
%ADD56C,0.038000*%
%ADD57C,0.053000*%
%LNmain-1*%
%LPD*%
G54D17*
X02428Y01972D03*
X02508D03*
X02229Y01976D03*
X02148D03*
G54D27*
X01267Y0155D03*
X01318D03*
X01602Y0255D03*
X01653D03*
G54D35*
X02217Y02576D03*
Y02346D03*
X02457Y02576D03*
Y02346D03*
X02697Y02336D03*
Y02566D03*
G54D36*
X01061Y02821D03*
Y01129D03*
G54D37*
X0114Y02821D03*
X01219D03*
X01297D03*
X01376D03*
X01455D03*
X01534D03*
X01612D03*
X01691D03*
X0177D03*
X01848D03*
X01061Y02988D03*
X0114D03*
X01219D03*
X01297D03*
X01376D03*
X01455D03*
X01534D03*
X01612D03*
X01691D03*
X0177D03*
X01848D03*
X0114Y01129D03*
X01219D03*
X01297D03*
X01376D03*
X01455D03*
X01534D03*
X01612D03*
X01691D03*
X0177D03*
X01848D03*
X01061Y01297D03*
X0114D03*
X01219D03*
X01297D03*
X01376D03*
X01455D03*
X01534D03*
X01612D03*
X01691D03*
X0177D03*
X01848D03*
G54D38*
X018Y01528D03*
Y01591D03*
X0189Y01593D03*
Y0153D03*
X0171Y01591D03*
Y01528D03*
G54D39*
X02474Y01653D03*
Y01259D03*
Y01456D03*
G54D40*
X0111Y01968D03*
Y02056D03*
X01354Y02039D03*
Y01951D03*
X01549Y02073D03*
Y02161D03*
X01785D03*
Y02073D03*
G54D41*
X01111Y02105D03*
Y02154D03*
X01354Y02095D03*
Y02144D03*
X01551Y01983D03*
X01551Y02032D03*
X01785Y01984D03*
X01785Y02033D03*
G54D42*
X01236Y01987D03*
X00984D03*
X01903Y02135D03*
X01667D03*
G54D43*
X01191Y02101D03*
X01281D03*
X00939D03*
X0103D03*
X01858Y0202D03*
X01948D03*
X01622D03*
X01712D03*
G54D44*
X01328Y01865D03*
X01604Y02249D03*
G54D45*
X01277Y01865D03*
X01225D03*
X01174D03*
X01123D03*
X01072D03*
X01021D03*
X01328Y01632D03*
X01277D03*
X01225D03*
X01174D03*
X01123D03*
X01072D03*
X01021D03*
X01911Y02481D03*
X0186D03*
X01809D03*
X01758D03*
X01706D03*
X01655D03*
X01604D03*
X01911Y02249D03*
X0186D03*
X01809D03*
X01758D03*
X01706D03*
X01655D03*
G54D46*
X02697Y0206D03*
Y0211D03*
Y0216D03*
Y0221D03*
X02505Y0206D03*
Y0211D03*
Y0216D03*
Y0221D03*
X02346Y0206D03*
Y0211D03*
Y0216D03*
Y0221D03*
X02153Y0206D03*
Y0211D03*
Y0216D03*
Y0221D03*
G54D47*
X02547Y0294D03*
X02447Y02821D03*
X02347Y0294D03*
X02247Y02821D03*
G54D48*
X02263Y01524D03*
Y01703D03*
G54D49*
X01885Y0188D03*
Y01817D03*
X01785Y01882D03*
Y0182D03*
X0171Y01882D03*
Y0182D03*
G54D50*
X01972Y01546D03*
X02047D03*
X0201Y01633D03*
G54D51*
X02677Y0111D03*
Y01803D03*
G54D52*
X0226Y01271D03*
Y0131D03*
Y0135D03*
Y01114D03*
Y01074D03*
Y01035D03*
X0218Y01114D03*
X02221D03*
X0218Y01074D03*
X02221D03*
X0214Y01114D03*
Y01074D03*
Y01035D03*
X02221D03*
X0218D03*
Y01271D03*
X02221D03*
X0214D03*
Y0131D03*
Y0135D03*
X02221Y0131D03*
X0218D03*
X02221Y0135D03*
X0218D03*
G54D53*
X01149Y02733D03*
X01552Y03093D03*
X01349Y03088D03*
X01314Y02905D03*
X01851Y01397D03*
X00944Y01344D03*
X0155Y02717D03*
X01905Y0291D03*
X0144Y03115D03*
X01767Y02372D03*
X00934Y02799D03*
X01393Y01211D03*
X01658Y01201D03*
X01559Y01213D03*
X01645Y01016D03*
X01549Y01017D03*
X01453Y01016D03*
X01733Y01198D03*
X01646Y01402D03*
X01149Y01026D03*
X01648Y02914D03*
X013Y0147D03*
X0197Y0149D03*
X01835Y01824D03*
X01687Y02597D03*
X01892Y02326D03*
X01875Y0121D03*
X01351Y01016D03*
X0128Y02618D03*
X01236Y0266D03*
X01371Y0187D03*
X01538Y015D03*
X01005Y01455D03*
X0196Y0101D03*
X01895Y01D03*
X01035Y02905D03*
X01349Y02717D03*
X01554Y02908D03*
X01335Y01205D03*
X0145Y01397D03*
X01247Y03096D03*
X01749Y031D03*
X01655Y03104D03*
X01735Y02905D03*
X01805Y027D03*
X01148Y03094D03*
X01148Y01395D03*
X0121Y01552D03*
G54D54*
X01659Y01942D03*
X01942Y02597D03*
X02417Y03019D03*
X0228Y0302D03*
X02417Y0294D03*
X02279D03*
X0176Y0148D03*
X0212Y0155D03*
X0268Y014D03*
X0262D03*
X0268Y0146D03*
X0262D03*
X0155Y019D03*
X02Y0188D03*
X02361Y02371D03*
X0244Y0226D03*
X02065Y02207D03*
X00921Y02859D03*
X00933Y03043D03*
X02164Y02788D03*
X02448Y02714D03*
X02261Y02671D03*
X01958Y02244D03*
X02503Y02441D03*
X02362Y02311D03*
X02431Y02441D03*
X01535Y02263D03*
X0106Y02675D03*
X01966Y01218D03*
X01902Y02674D03*
X01524Y025D03*
X0248Y01181D03*
X02621Y01655D03*
X01109Y0221D03*
X01353Y02199D03*
X00961Y01869D03*
X01392Y01554D03*
X02633Y02774D03*
X0257D03*
Y02833D03*
X02633D03*
X02291Y01972D03*
X02606Y02071D03*
Y0213D03*
X02625Y02248D03*
X02606Y02189D03*
X02358Y01972D03*
G54D55*
X01492Y0122D03*
G54D56*
X01606Y01214D03*
G54D57*
X01011Y01208D03*
M02*