%FSTAX23Y23*%
%MOIN*%
%SFA1B1*%

%IPPOS*%
%ADD11C,0.009843*%
%ADD13C,0.007874*%
%ADD16C,0.005000*%
%ADD77C,0.023622*%
%LNmain-1*%
%LPD*%
G54D11*
X01975Y02356D02*
D01*
X01975Y02356*
X01975Y02357*
X01975Y02357*
X01975Y02357*
X01975Y02358*
X01975Y02358*
X01975Y02358*
X01974Y02359*
X01974Y02359*
X01974Y02359*
X01974Y02359*
X01974Y0236*
X01973Y0236*
X01973Y0236*
X01973Y0236*
X01972Y0236*
X01972Y02361*
X01972Y02361*
X01971Y02361*
X01971Y02361*
X01971Y02361*
X0197Y02361*
X0197*
X0197Y02361*
X01969Y02361*
X01969Y02361*
X01969Y02361*
X01968Y02361*
X01968Y0236*
X01968Y0236*
X01968Y0236*
X01967Y0236*
X01967Y0236*
X01967Y02359*
X01967Y02359*
X01966Y02359*
X01966Y02359*
X01966Y02358*
X01966Y02358*
X01966Y02358*
X01966Y02357*
X01965Y02357*
X01965Y02357*
X01965Y02356*
X01965Y02356*
X01965Y02356*
X01965Y02355*
X01965Y02355*
X01966Y02355*
X01966Y02354*
X01966Y02354*
X01966Y02354*
X01966Y02353*
X01966Y02353*
X01967Y02353*
X01967Y02353*
X01967Y02352*
X01967Y02352*
X01968Y02352*
X01968Y02352*
X01968Y02352*
X01968Y02351*
X01969Y02351*
X01969Y02351*
X01969Y02351*
X0197Y02351*
X0197Y02351*
X0197*
X01971Y02351*
X01971Y02351*
X01971Y02351*
X01972Y02351*
X01972Y02351*
X01972Y02352*
X01973Y02352*
X01973Y02352*
X01973Y02352*
X01974Y02352*
X01974Y02353*
X01974Y02353*
X01974Y02353*
X01974Y02353*
X01975Y02354*
X01975Y02354*
X01975Y02354*
X01975Y02355*
X01975Y02355*
X01975Y02355*
X01975Y02356*
X01975Y02356*
G54D13*
X02019Y02564D02*
X02144D01*
X02019Y02367D02*
X02144D01*
Y02564*
X02019Y02367D02*
Y02564D01*
G54D16*
X02084Y0266D02*
Y02679D01*
X02074*
X02071Y02676*
Y0267*
X02074Y02666*
X02084*
X02078D02*
X02071Y0266D01*
X02065D02*
X02058D01*
X02061*
Y02679*
X02065Y02676*
X02048D02*
X02045Y02679D01*
X02038*
X02035Y02676*
Y02663*
X02038Y0266*
X02045*
X02048Y02663*
Y02676*
X02196Y02655D02*
Y02674D01*
X02186*
X02183Y02671*
Y02665*
X02186Y02661*
X02196*
X02189D02*
X02183Y02655D01*
X02176Y02671D02*
X02173Y02674D01*
X02166*
X02163Y02671*
Y02668*
X02166Y02665*
X02163Y02661*
Y02658*
X02166Y02655*
X02173*
X02176Y02658*
Y02661*
X02173Y02665*
X02176Y02668*
Y02671*
X02173Y02665D02*
X02166D01*
X02331Y0255D02*
Y02569D01*
X02321*
X02318Y02566*
Y0256*
X02321Y02556*
X02331*
X02324D02*
X02318Y0255D01*
X02311Y02569D02*
X02298D01*
Y02566*
X02311Y02553*
Y0255*
X02334Y02466D02*
X02315D01*
Y02456*
X02318Y02453*
X02325*
X02328Y02456*
Y02466*
Y02459D02*
X02334Y02453D01*
X02315Y02433D02*
X02318Y0244D01*
X02325Y02446*
X02331*
X02334Y02443*
Y02436*
X02331Y02433*
X02328*
X02325Y02436*
Y02446*
X01923Y02325D02*
Y02341D01*
X01926Y02344*
X01933*
X01936Y02341*
Y02325*
X01943Y02328D02*
X01946Y02325D01*
X01953*
X01956Y02328*
Y02331*
X01953Y02335*
X01949*
X01953*
X01956Y02338*
Y02341*
X01953Y02344*
X01946*
X01943Y02341*
X01775Y02413D02*
X01794D01*
Y02423*
X01791Y02426*
X01785*
X01781Y02423*
Y02413*
Y0242D02*
X01775Y02426D01*
Y02433D02*
Y0244D01*
Y02436*
X01794*
X01791Y02433*
X01775Y02449D02*
Y02456D01*
Y02453*
X01794*
X01791Y02449*
X01799Y02566D02*
X0178D01*
Y02556*
X01783Y02553*
X0179*
X01793Y02556*
Y02566*
Y02559D02*
X01799Y02553D01*
X01796Y02546D02*
X01799Y02543D01*
Y02536*
X01796Y02533*
X01783*
X0178Y02536*
Y02543*
X01783Y02546*
X01786*
X0179Y02543*
Y02533*
X01837Y02327D02*
Y02331D01*
X01842Y02336*
X01847*
X01856Y02327*
Y02322*
X01851Y02317*
X01847*
X01832Y02322D02*
X01828D01*
X01823Y02317*
Y02312*
X01825Y0231*
X0183*
Y02305*
X01832Y02303*
X01837*
X01842Y02308*
Y02312*
X0184Y02315*
X01835*
Y0232*
X01832Y02322*
X01835Y02315D02*
X0183Y0231D01*
X02017Y01103D02*
Y01096D01*
Y01099*
X02*
X01997Y01096*
Y01093*
X02Y01089*
X02017Y01123D02*
Y01109D01*
X02007*
X0201Y01116*
Y01119*
X02007Y01123*
X02*
X01997Y01119*
Y01113*
X02Y01109*
X02019Y02871D02*
Y02865D01*
Y02868*
X02003*
X02Y02865*
Y02861*
X02003Y02858*
X02Y02888D02*
X02019D01*
X0201Y02878*
Y02891*
G54D77*
X0207Y02406D02*
D01*
X0207Y02407*
X0207Y02408*
X02069Y02409*
X02069Y0241*
X02069Y0241*
X02069Y02411*
X02068Y02412*
X02068Y02413*
X02067Y02413*
X02067Y02414*
X02066Y02415*
X02066Y02415*
X02065Y02416*
X02064Y02416*
X02064Y02417*
X02063Y02417*
X02062Y02417*
X02062Y02418*
X02061Y02418*
X0206Y02418*
X02059Y02418*
X02058Y02418*
X02057*
X02057Y02418*
X02056Y02418*
X02055Y02418*
X02054Y02418*
X02053Y02417*
X02053Y02417*
X02052Y02417*
X02051Y02416*
X02051Y02416*
X0205Y02415*
X02049Y02415*
X02049Y02414*
X02048Y02413*
X02048Y02413*
X02047Y02412*
X02047Y02411*
X02047Y0241*
X02047Y0241*
X02046Y02409*
X02046Y02408*
X02046Y02407*
X02046Y02406*
X02046Y02406*
X02046Y02405*
X02046Y02404*
X02047Y02403*
X02047Y02402*
X02047Y02402*
X02047Y02401*
X02048Y024*
X02048Y024*
X02049Y02399*
X02049Y02398*
X0205Y02398*
X02051Y02397*
X02051Y02397*
X02052Y02396*
X02053Y02396*
X02053Y02395*
X02054Y02395*
X02055Y02395*
X02056Y02395*
X02057Y02395*
X02057Y02395*
X02058*
X02059Y02395*
X0206Y02395*
X02061Y02395*
X02062Y02395*
X02062Y02395*
X02063Y02396*
X02064Y02396*
X02064Y02397*
X02065Y02397*
X02066Y02398*
X02066Y02398*
X02067Y02399*
X02067Y024*
X02068Y024*
X02068Y02401*
X02069Y02402*
X02069Y02402*
X02069Y02403*
X02069Y02404*
X0207Y02405*
X0207Y02406*
X0207Y02406*
M02*